<?xml version="1.0" encoding="UTF-8" standalone="no"?>
<svg version="1.1" viewBox="-49 -55 835.007 811.42627" width="46.868999" height="50.014999" id="svg241" sodipodi:docname="Red_Panda.svg" inkscape:version="1.3 (0e150ed6c4, 2023-07-21)"
   xmlns:inkscape="http://www.inkscape.org/namespaces/inkscape"
   xmlns:sodipodi="http://sodipodi.sourceforge.net/DTD/sodipodi-0.dtd"
   xmlns="http://www.w3.org/2000/svg"
   xmlns:svg="http://www.w3.org/2000/svg">
   <defs id="defs241" />
   <sodipodi:namedview id="namedview241" pagecolor="#ffffff" bordercolor="#000000" borderopacity="0.25" inkscape:showpageshadow="2" inkscape:pageopacity="0.0" inkscape:pagecheckerboard="false" inkscape:deskcolor="#d1d1d1" inkscape:zoom="6.3577713" inkscape:cx="75.576799" inkscape:cy="48.05143" inkscape:window-width="1920" inkscape:window-height="1017" inkscape:window-x="-8" inkscape:window-y="-8" inkscape:window-maximized="1" inkscape:current-layer="svg241" showguides="true" />
   <g stroke-width="2" fill="none" stroke-linecap="butt" id="g167" transform="translate(-129.24236,-192.21328)">
      <path stroke="#8c8081" vector-effect="non-scaling-stroke" d="m 373.53,861.99 c 10.04,21.52 38.83,23.38 59.38,24.62 21.5,1.29 45.59,0.71 66.5,-5.13 q 0.47,-0.14 0.85,0.18 19.04,16.32 45.5,21.03 c 26.28,4.68 77.9,0.99 86.78,-31.76 a 0.74,0.73 -83.8 0 1 0.66,-0.54 q 10.26,-0.7 20.48,0.37 0.56,0.06 0.69,0.62 c 5.34,23.5 34.74,30.79 55.06,32.67 32.51,3.02 64.54,-6.42 86.13,-31.85 a 1.21,1.19 18.8 0 1 0.87,-0.42 q 1.54,-0.03 3.07,0.08 c 22.22,1.52 57.72,-3.76 55.17,-34.82 -1.39,-17.03 -13.7,-26.15 -24.35,-38.86 -0.71,-0.86 -1.15,-2.34 -0.93,-3.47 q 6.12,-32.12 8.1,-64.73 c 0.83,-13.8 0.39,-28.92 0.43,-43.42 q 0.04,-11.41 -0.6,-19.97 c -4.44,-59.32 -18.5,-117.18 -45.31,-170.52 a 0.67,0.66 -29.1 0 1 0.25,-0.86 c 41.63,-25.89 63.73,-67.64 57.11,-117.04 q -5.87,-43.86 -20.98,-82.6 -0.17,-0.45 -0.04,-0.92 5.45,-19.69 6.95,-43.84 c 1.85,-29.95 1.64,-112.43 -44.07,-113.34 -35.38,-0.7 -71,15.64 -99.02,36.23 q -0.39,0.29 -0.84,0.09 c -14.09,-6.17 -30.88,-8.49 -46.11,-9.64 q -21.81,-1.66 -43.61,-0.41 c -19.33,1.11 -36.67,3.29 -54.64,9.9 q -0.47,0.18 -0.88,-0.12 C 520.57,154.76 488.2,139.27 456.49,137.61 q -12.67,-0.66 -19.76,1.86 c -31.89,11.34 -34.35,71.4 -33.91,98.34 0.3,19.28 2.4,38.13 7.54,56.75 q 0.13,0.48 -0.05,0.95 c -11.7,30.26 -20.35,63.47 -21.98,95.99 -1.94,38.78 16.66,73.37 47.39,96.24 q 0.87,0.64 0.18,1.47 c -42.26,50.8 -72.71,107.87 -87.43,172.59 q -1.24,5.48 -2.71,11.06 -0.15,0.56 -0.61,0.2 c -35.17,-27.29 -46.45,-80.62 -49.99,-122.38 -2.81,-33.17 -4.39,-66.46 -11.03,-99.15 -6.37,-31.37 -21.08,-66.58 -53.93,-78.25 -28.3,-10.05 -58.18,-5.06 -80.82,14.38 -25.58,21.96 -36.71,58.38 -40.14,91.1 -12.09,115.37 31.35,231.01 112.8,313.31 38.05,38.43 96.14,68 150.74,69.43 a 0.84,0.84 0 0 1 0.75,0.49" id="path2" />
      <path stroke="#7d6561" vector-effect="non-scaling-stroke" d="m 416.08,264.3 q 1.17,14.1 6.03,28.79" id="path3" />
      <path stroke="#8c4d32" vector-effect="non-scaling-stroke" d="m 422.11,293.09 0.41,1.86 a 1.66,1.58 -41.5 0 1 -0.08,0.93 c -11.48,29.24 -19.68,59.76 -22.48,91.36 q -1.33,15.01 1.45,28.87" id="path4" />
      <path stroke="#883d1d" vector-effect="non-scaling-stroke" d="m 401.41,416.11 q 2.39,11.32 7.61,22.39" id="path5" />
      <path stroke="#7d6561" vector-effect="non-scaling-stroke" d="m 409.02,438.5 c 16.18,33.18 48.9,54.53 83.58,65.72" id="path6" />
      <path stroke="#481e10" vector-effect="non-scaling-stroke" d="m 492.6,504.22 c 30.69,10.13 65.19,16.13 98.44,16.49" id="path7" />
      <path stroke="#7d6561" vector-effect="non-scaling-stroke" d="m 591.04,520.71 c 19.02,2.01 38.26,0.84 57.3,0.08" id="path8" />
      <path stroke="#481e10" vector-effect="non-scaling-stroke" d="m 648.34,520.79 c 32.27,-0.98 67.65,-5.61 97.94,-16.7" id="path9" />
      <path stroke="#7d6561" vector-effect="non-scaling-stroke" d="m 746.28,504.09 c 33.38,-10.81 63.8,-30.4 81.44,-61.36 q 0.94,-1.66 1.51,-4.2" id="path10" />
      <path stroke="#793016" vector-effect="non-scaling-stroke" d="m 829.23,438.53 q 1.22,-1.48 2.22,-3.84 8.27,-19.65 7.55,-40.62 c -1.09,-31.93 -9.91,-65.02 -21.51,-95.02 q -0.97,-2.53 -1,-4.21 -0.05,-2.49 0.92,-4.33" id="path11" />
      <path stroke="#7d6561" vector-effect="non-scaling-stroke" d="m 817.41,290.51 q 4.08,-13.52 5.26,-26.48" id="path12" />
      <path stroke="#8c8081" vector-effect="non-scaling-stroke" d="m 822.67,264.03 c 2.77,-23.11 7.03,-115.32 -32.93,-115.25 -27.25,0.04 -53.66,10.51 -76.54,24.78" id="path13" />
      <path stroke="#7d6561" vector-effect="non-scaling-stroke" d="m 713.2,173.56 -16.43,11" id="path14" />
      <path stroke="#8c4d32" vector-effect="non-scaling-stroke" d="m 696.77,184.56 c -2.17,1.91 -4.5,2.15 -7.28,0.88 q -12.54,-5.72 -26.24,-7.67 -44.77,-6.38 -89.5,0.24 -13.35,1.98 -26.61,8.4 a 1.47,1.47 0 0 1 -0.94,0.12 l -2.14,-0.47" id="path15" />
      <path stroke="#7d6561" vector-effect="non-scaling-stroke" d="M 544.06,186.06 525.74,173.7" id="path16" />
      <path stroke="#8c8081" vector-effect="non-scaling-stroke" d="M 525.74,173.7 C 503.59,159.92 478,149.65 451.5,148.74 c -17.38,-0.59 -25.69,12.4 -30.26,27.51 -8.41,27.84 -8.56,60.67 -5.16,88.05" id="path17" />
      <path stroke="#f0e4e0" vector-effect="non-scaling-stroke" d="m 525.74,173.7 q -1.49,2.32 -2.95,4.56 c -5.37,8.22 -17.75,13.83 -27.1,8.77 q -6.71,-3.62 -15.65,-7.79 c -8.99,-4.2 -31.1,-10.53 -37.78,0.07 q -5.16,8.19 -6.86,19.02 -2.98,19.09 -3.2,38.34 c -0.14,13.2 -2.52,23.15 -16.12,27.63" id="path18" />
      <path stroke="#f0b191" vector-effect="non-scaling-stroke" d="M 544.06,186.06 Q 524.18,194 506.3,205.8 c -0.38,0.25 -0.88,0.32 -1.32,0.5" id="path19" />
      <path stroke="#a17769" vector-effect="non-scaling-stroke" d="m 504.98,206.3 c -11,-10.8 -27.09,-21.81 -41.95,-23 -7.76,-0.61 -12.32,1.44 -15.14,8.65 -7.9,20.19 -6.83,46.28 -2.86,67.4" id="path20" />
      <path stroke="#f0b191" vector-effect="non-scaling-stroke" d="m 445.03,259.35 q -10.14,12.62 -14.65,19.55 -1.79,2.75 -8.27,14.19" id="path21" />
      <path stroke="#fb894c" vector-effect="non-scaling-stroke" d="m 702.31,186.85 -0.23,0.42 q -0.23,0.4 0.14,0.69 l 10.26,8.07 a 1.83,1.83 0 0 1 -0.87,3.25 c -6.25,0.9 -13.92,-1.77 -21.79,-3.6 q -41.29,-9.57 -84.38,-6.31 c -50.21,3.8 -94.11,28.46 -131.03,62.14 -18.18,16.58 -33.9,36.58 -44.16,59.06 q -18.07,39.62 -23.98,82.89 c -0.69,5.07 -0.8,12.58 -1.96,19.08 q -0.6,3.31 -2.9,3.57" id="path22" />
      <path stroke="#b05f39" vector-effect="non-scaling-stroke" d="m 445.03,259.35 q 26.55,-30.43 59.22,-52.33 0.27,-0.18 0.44,-0.47 0.16,-0.26 0.29,-0.25" id="path23" />
      <path stroke="#dd9475" vector-effect="non-scaling-stroke" d="m 817.41,290.51 q -9.76,-18.71 -22.7,-33.98 -0.21,-0.26 -0.25,-1.02" id="path24" />
      <path stroke="#a17769" vector-effect="non-scaling-stroke" d="m 794.46,255.51 q 3.2,-20.32 1.12,-43.32 c -0.73,-8.02 -2.75,-19.8 -7.94,-25.62 -5.11,-5.75 -17.08,-3.2 -24.13,-0.27 q -14.81,6.15 -27.3,17.75" id="path25" />
      <path stroke="#eca17c" vector-effect="non-scaling-stroke" d="m 736.21,204.05 q -16.07,-10.29 -33.9,-17.2" id="path26" />
      <path stroke="#f0b191" vector-effect="non-scaling-stroke" d="m 702.31,186.85 -5.54,-2.29" id="path27" />
      <path stroke="#e76c31" vector-effect="non-scaling-stroke" d="m 742.79,208.49 q 0.04,0.5 -0.12,0.94 -0.16,0.45 0.17,0.79 c 24.58,25.45 44.25,51.28 55.95,85.26 11.15,32.41 18.62,66.72 16.14,101.2 a 1.71,1.68 -28.1 0 1 -0.23,0.73 l -1.26,2.15" id="path28" />
      <path stroke="#fbbc9b" vector-effect="non-scaling-stroke" d="m 813.44,399.56 c -17.18,-17.88 -42.62,-24.5 -64.22,-9.68" id="path29" />
      <path stroke="#c46233" vector-effect="non-scaling-stroke" d="m 749.22,389.88 -9.04,-8.7" id="path30" />
      <path stroke="#883d1d" vector-effect="non-scaling-stroke" d="m 740.18,381.18 q 5.46,-14.78 -0.12,-28.85" id="path31" />
      <path stroke="#e76c31" vector-effect="non-scaling-stroke" d="m 740.06,352.33 q 1.58,-5.17 -1.1,-11.08 c -10.62,-23.4 -43.06,-26.41 -50.93,0.51 q -2.35,8.06 -0.01,13.85" id="path32" />
      <path stroke="#883d1d" vector-effect="non-scaling-stroke" d="m 688.02,355.61 q -2.24,8.44 -0.94,18.14" id="path33" />
      <path stroke="#fbbc9b" vector-effect="non-scaling-stroke" d="m 687.08,373.75 q -2.15,-1.18 -9.39,-5.7 C 655.66,354.3 624.92,350.49 599.07,354.58 q -25.26,4 -47.44,19.37" id="path34" />
      <path stroke="#883d1d" vector-effect="non-scaling-stroke" d="m 551.63,373.95 q 1.43,-10.35 -1.31,-18.62" id="path35" />
      <path stroke="#e76c31" vector-effect="non-scaling-stroke" d="m 550.32,355.33 1.57,-0.9 q 0.42,-0.25 0.39,-0.73 c -0.75,-12.65 -3.68,-23.91 -16.51,-29.18 q -13.99,-5.75 -26.85,4.46 -11.8,9.36 -10.73,23.53" id="path36" />
      <path stroke="#883d1d" vector-effect="non-scaling-stroke" d="m 498.19,352.51 q -4.93,14.76 0.38,28.7" id="path37" />
      <path stroke="#c46233" vector-effect="non-scaling-stroke" d="m 498.57,381.21 -9.09,8.82" id="path38" />
      <path stroke="#fbbc9b" vector-effect="non-scaling-stroke" d="m 489.48,390.03 c -17.35,-12.6 -38.6,-10.21 -55.28,1.89 q -21.1,15.29 -24.38,41.48" id="path39" />
      <path stroke="#eca17c" vector-effect="non-scaling-stroke" d="m 409.82,433.4 q 0.61,2.15 -0.8,5.1" id="path40" />
      <path stroke="#9c421e" vector-effect="non-scaling-stroke" d="m 794.46,255.51 q -0.15,-0.01 -0.29,-0.01 a 0.4,0.39 69.1 0 1 -0.3,-0.14 q -22.39,-26.89 -51.08,-46.87" id="path41" />
      <path stroke="#ab4f24" vector-effect="non-scaling-stroke" d="m 742.79,208.49 -6.58,-4.44" id="path42" />
      <path stroke="#dd9475" vector-effect="non-scaling-stroke" d="m 829.23,438.53 q -0.85,-22.05 -14.99,-38.11" id="path43" />
      <path stroke="#ecaf95" vector-effect="non-scaling-stroke" d="m 814.24,400.42 -0.8,-0.86" id="path44" />
      <path stroke="#f0e4e0" vector-effect="non-scaling-stroke" d="m 822.67,264.03 c -10.59,-2.16 -16.28,-12.9 -16.1,-23.02 q 0.4,-22.37 -3.62,-44.29 c -1.58,-8.59 -5.27,-22.12 -15.97,-22.94 -16.36,-1.24 -30.1,5.49 -44,13.23 -11.6,6.47 -25.1,-3.09 -29.78,-13.45" id="path45" />
      <path stroke="#c9a597" vector-effect="non-scaling-stroke" d="m 749.22,389.88 c 19.37,23.76 25.64,48.1 19.16,78.61" id="path46" />
      <path stroke="#ba8a77" vector-effect="non-scaling-stroke" d="m 768.38,468.49 -0.45,1.74" id="path47" />
      <path stroke="#854326" vector-effect="non-scaling-stroke" d="m 767.93,470.23 q -8.34,3.7 -15.97,6.83 -23.6,9.66 -48.72,14.14 -0.54,0.09 -0.85,-0.36 -0.52,-0.79 -1.09,-0.61" id="path48" />
      <path stroke="#562618" vector-effect="non-scaling-stroke" d="m 740.18,381.18 c -6.14,12.61 -17.09,19.64 -31.69,17.3" id="path49" />
      <path stroke="#8c8081" vector-effect="non-scaling-stroke" d="m 708.49,398.48 q -5.84,-2.45 -7.43,-3.54 -11.09,-7.65 -13.98,-21.19" id="path50" />
      <path stroke="#8c8081" vector-effect="non-scaling-stroke" d="m 551.63,373.95 q -4.14,17.91 -21.31,24.58" id="path51" />
      <path stroke="#562618" vector-effect="non-scaling-stroke" d="m 530.32,398.53 q -21.91,2.91 -31.75,-17.32" id="path52" />
      <path stroke="#c9a597" vector-effect="non-scaling-stroke" d="m 708.49,398.48 c 2.19,5.02 4.72,10.11 6.23,14.91 8.26,26.25 4.28,55.23 -13.42,76.84" id="path53" />
      <path stroke="#bb9d8f" vector-effect="non-scaling-stroke" d="m 701.3,490.23 -2.15,2.51" id="path54" />
      <path stroke="#f0e4e0" vector-effect="non-scaling-stroke" d="m 699.15,492.74 c -1.67,-0.79 -2.77,-0.07 -4.23,0.14 q -72.81,10.77 -146.42,0.61 c -2.65,-0.36 -6.9,-2 -8.5,-0.33" id="path55" />
      <path stroke="#bb9d8f" vector-effect="non-scaling-stroke" d="m 540,493.16 -2.76,-3.17" id="path56" />
      <path stroke="#c9a597" vector-effect="non-scaling-stroke" d="m 537.24,489.99 c -21.27,-26.13 -22.31,-62.24 -6.92,-91.46" id="path57" />
      <path stroke="#793016" vector-effect="non-scaling-stroke" d="m 550.32,355.33 c -6.88,-19.62 -29.43,-28.2 -45.35,-12.37 q -2.75,2.73 -6.78,9.55" id="path58" />
      <path stroke="#f0e4e0" vector-effect="non-scaling-stroke" d="m 814.24,400.42 q -0.27,4.83 -1.91,11.65 -9.14,37.86 -42.59,56.64 -0.69,0.38 -1.36,-0.22" id="path59" />
      <path stroke="#ac816f" vector-effect="non-scaling-stroke" d="m 471.83,474.06 q 5.76,18.76 20.44,29.52 0.18,0.14 0.2,0.36 0.01,0.15 0.13,0.28" id="path60" />
      <path stroke="#793016" vector-effect="non-scaling-stroke" d="m 740.06,352.33 c -12.39,-25.72 -41.86,-21.99 -52.04,3.28" id="path61" />
      <path stroke="#854326" vector-effect="non-scaling-stroke" d="m 537.24,489.99 -1.03,1.01 q -0.28,0.28 -0.68,0.21 -31.26,-5.36 -56.98,-14.96 -5.22,-1.95 -6.72,-2.19" id="path62" />
      <path stroke="#ba8a77" vector-effect="non-scaling-stroke" d="m 471.83,474.06 q 0.23,1.15 -0.26,-0.64" id="path63" />
      <path stroke="#c9a597" vector-effect="non-scaling-stroke" d="m 471.57,473.42 c -8.18,-30.03 -3.01,-59.95 17.91,-83.39" id="path64" />
      <path stroke="#f0e4e0" vector-effect="non-scaling-stroke" d="M 471.57,473.42 C 447.31,463.67 427.99,451.38 409.82,433.4" id="path65" />
      <path stroke="#ac816f" vector-effect="non-scaling-stroke" d="m 746.28,504.09 q 16.5,-13.01 21.65,-33.86" id="path66" />
      <path stroke="#ac816f" vector-effect="non-scaling-stroke" d="m 648.34,520.79 q 7.07,-2.34 13.54,-4.52 21.58,-7.29 37.27,-23.53" id="path67" />
      <path stroke="#ac816f" vector-effect="non-scaling-stroke" d="m 540,493.16 c 14.79,15.31 30.9,21.68 51.04,27.55" id="path68" />
      <path stroke="#883d1d" vector-effect="non-scaling-stroke" d="m 119.11,523.64 q -0.42,2.14 -0.36,4.11 0.94,31.07 7.06,61.48" id="path69" />
      <path stroke="#481e10" vector-effect="non-scaling-stroke" d="m 125.81,589.23 q 7.28,36.36 21.74,70.33" id="path70" />
      <path stroke="#883d1d" vector-effect="non-scaling-stroke" d="m 147.55,659.56 q 0.6,1.89 1.4,3.74 12.02,27.84 28.03,53.47" id="path71" />
      <path stroke="#481e10" vector-effect="non-scaling-stroke" d="m 176.98,716.77 q 22.36,35.94 52.4,66.48" id="path72" />
      <path stroke="#883d1d" vector-effect="non-scaling-stroke" d="m 229.38,783.25 1.58,1.55" id="path73" />
      <path stroke="#702712" vector-effect="non-scaling-stroke" d="m 230.96,784.8 q 19.71,19.68 43.92,34.15" id="path74" />
      <path stroke="#3d130a" vector-effect="non-scaling-stroke" d="m 274.88,818.95 q 28.61,17.33 61.93,25.99 0.59,0.15 1.28,-0.19" id="path75" />
      <path stroke="#702712" vector-effect="non-scaling-stroke" d="m 338.09,844.75 q 0.48,0.71 1.9,1.06 14.86,3.69 30.18,4.24 0.52,0.01 0.53,-0.51 0.09,-7.1 2.01,-13.4" id="path76" />
      <path stroke="#883d1d" vector-effect="non-scaling-stroke" d="m 372.71,836.14 c 1.3,-2.94 2.51,-5.91 0.22,-8.6 -20.3,-23.78 -28.72,-50.75 -32.76,-81.5" id="path77" />
      <path stroke="#481e10" vector-effect="non-scaling-stroke" d="m 340.17,746.04 q -0.96,-19.39 0.35,-39.25" id="path78" />
      <path stroke="#3d130a" vector-effect="non-scaling-stroke" d="m 340.52,706.79 2.73,-20.12 q 0.07,-0.55 -0.37,-0.88 l -6.38,-4.77" id="path79" />
      <path stroke="#702712" vector-effect="non-scaling-stroke" d="m 336.5,681.02 c -9.23,-7.97 -14.81,-14.81 -22.26,-25.01" id="path80" />
      <path stroke="#3d130a" vector-effect="non-scaling-stroke" d="M 314.24,656.01 Q 303.5,638.35 297.07,619.67" id="path81" />
      <path stroke="#702712" vector-effect="non-scaling-stroke" d="m 297.07,619.67 q -7.01,-21.85 -10.52,-43.55" id="path82" />
      <path stroke="#3d130a" vector-effect="non-scaling-stroke" d="m 286.55,576.12 c -0.9,-7.67 -2.16,-15.43 -2.75,-22.87 q -1.13,-14.38 -2.33,-28.16" id="path83" />
      <path stroke="#702712" vector-effect="non-scaling-stroke" d="m 281.47,525.09 q -0.99,-16.53 -3.91,-43.15 -0.8,-7.31 -1.93,-11.07" id="path84" />
      <path stroke="#3d130a" vector-effect="non-scaling-stroke" d="m 275.63,470.87 q -1.4,-16.81 -6.98,-32.38" id="path85" />
      <path stroke="#481e10" vector-effect="non-scaling-stroke" d="m 268.65,438.49 c -7.81,-31.99 -28.28,-56.87 -63.11,-58.75 -36.11,-1.95 -62.2,22.72 -74.24,54.57 -10.51,27.78 -13.77,59.79 -12.19,89.33" id="path86" />
      <path stroke="#6c3018" vector-effect="non-scaling-stroke" d="m 268.65,438.49 q -1.79,0.34 -1.22,3.74 c 0.76,4.48 4.31,21.06 2.52,24.49" id="path87" />
      <path stroke="#b75a2b" vector-effect="non-scaling-stroke" d="m 269.95,466.72 c -29.86,-20.12 -78.39,-17.08 -107.52,2.97 q -21.62,14.89 -34.94,38.49 -4.05,7.18 -8.38,15.46" id="path88" />
      <path stroke="#de632d" vector-effect="non-scaling-stroke" d="m 271.18,468.08 1.75,49.54 q 0.01,0.33 -0.24,0.55 -0.11,0.09 -0.25,0.21" id="path89" />
      <path stroke="#b75a2b" vector-effect="non-scaling-stroke" d="M 272.44,518.38 Q 257.93,508.9 241.08,506.4 c -56.14,-8.33 -98.76,33.11 -114.98,82.76 q -0.04,0.12 -0.16,0.09 -0.07,-0.01 -0.13,-0.02" id="path90" />
      <path stroke="#93391a" vector-effect="non-scaling-stroke" d="m 275.63,470.87 -4.45,-2.79" id="path91" />
      <path stroke="#ab4f24" vector-effect="non-scaling-stroke" d="m 271.18,468.08 -1.23,-1.36" id="path92" />
      <path stroke="#93391a" vector-effect="non-scaling-stroke" d="M 281.47,525.09 273.7,519.3" id="path93" />
      <path stroke="#9f4420" vector-effect="non-scaling-stroke" d="m 273.7,519.3 q -0.52,-0.16 -1.26,-0.92" id="path94" />
      <path stroke="#6c3018" vector-effect="non-scaling-stroke" d="m 273.7,519.3 q -0.81,1.03 -0.73,3.27 1,31.38 2.08,46.43 0.11,1.44 -0.56,1.85" id="path95" />
      <path stroke="#b75a2b" vector-effect="non-scaling-stroke" d="M 274.49,570.85 C 213.8,554.89 160.27,603.81 147.55,659.56" id="path96" />
      <path stroke="#93391a" vector-effect="non-scaling-stroke" d="m 286.55,576.12 -10.98,-4.61" id="path97" />
      <path stroke="#ab4f24" vector-effect="non-scaling-stroke" d="m 275.57,571.51 q -0.71,-0.2 -1.08,-0.66" id="path98" />
      <path stroke="#de632d" vector-effect="non-scaling-stroke" d="m 275.57,571.51 q 1.02,23.47 7.35,46.04" id="path99" />
      <path stroke="#b75a2b" vector-effect="non-scaling-stroke" d="m 282.92,617.55 c -58.47,-2.28 -98.88,44.3 -105.33,98.75 q -0.07,0.55 -0.61,0.47" id="path100" />
      <path stroke="#93391a" vector-effect="non-scaling-stroke" d="m 297.07,619.67 -14.06,-2.01" id="path101" />
      <path stroke="#9f4420" vector-effect="non-scaling-stroke" d="m 283.01,617.66 q -0.72,0 -0.09,-0.11" id="path102" />
      <path stroke="#6c3018" vector-effect="non-scaling-stroke" d="m 283.01,617.66 q 5.71,19.14 14.52,36.6 c 0.55,1.1 0.42,2.36 1.15,3.38" id="path103" />
      <path stroke="#b75a2b" vector-effect="non-scaling-stroke" d="m 298.68,657.64 c -44.77,9.5 -68.15,57.97 -70.66,99.61 q -0.65,10.65 1.36,26" id="path104" />
      <path stroke="#93391a" vector-effect="non-scaling-stroke" d="m 314.24,656.01 -14.72,1.47" id="path105" />
      <path stroke="#ab4f24" vector-effect="non-scaling-stroke" d="m 299.52,657.48 q -0.21,-0.09 -0.84,0.16" id="path106" />
      <path stroke="#b75a2b" vector-effect="non-scaling-stroke" d="m 321.33,688.85 c -35.93,23.98 -51.2,63.25 -48.92,105.59 q 0.47,8.68 0.94,13.68" id="path107" />
      <path stroke="#de632d" vector-effect="non-scaling-stroke" d="m 273.35,808.12 q -17.57,-7.39 -35.08,-18.65 -3.66,-2.35 -5.86,-4.57 -0.28,-0.28 -0.66,-0.22 l -0.79,0.12" id="path108" />
      <path stroke="#93391a" vector-effect="non-scaling-stroke" d="m 336.5,681.02 -15.12,7.85" id="path109" />
      <path stroke="#9f4420" vector-effect="non-scaling-stroke" d="m 321.38,688.87 q -0.02,-0.01 -0.05,-0.02" id="path110" />
      <path stroke="#de632d" vector-effect="non-scaling-stroke" d="M 321.33,688.85 Q 308.79,674.37 299.52,657.48" id="path111" />
      <path stroke="#b75a2b" vector-effect="non-scaling-stroke" d="m 340.17,746.04 q -13.91,26.37 -11.46,56.78 1.24,15.41 4.56,27.18" id="path112" />
      <path stroke="#9f4420" vector-effect="non-scaling-stroke" d="m 333.27,830 q -0.13,0.6 0.09,0.67" id="path113" />
      <path stroke="#6c3018" vector-effect="non-scaling-stroke" d="m 333.36,830.67 c -5.22,-1.67 -10.9,-2.84 -15.67,-4.51 q -22.1,-7.74 -43.47,-17.36 -0.5,-0.23 -0.61,1" id="path114" />
      <path stroke="#9f4420" vector-effect="non-scaling-stroke" d="m 273.61,809.8 -0.26,-1.68" id="path115" />
      <path stroke="#93391a" vector-effect="non-scaling-stroke" d="m 273.61,809.8 1.27,9.15" id="path116" />
      <path stroke="#6c3018" vector-effect="non-scaling-stroke" d="m 340.52,706.79 q -10.7,-8.09 -19.14,-17.92" id="path117" />
      <path stroke="#de632d" vector-effect="non-scaling-stroke" d="m 372.71,836.14 q -19.77,-0.7 -38.86,-5.63 -0.25,-0.06 -0.35,-0.3 -0.08,-0.21 -0.23,-0.21" id="path118" />
      <path stroke="#93391a" vector-effect="non-scaling-stroke" d="m 333.36,830.67 4.73,14.08" id="path119" />
      <path stroke="#8c4d32" vector-effect="non-scaling-stroke" d="m 440.32,501.91 c -48.74,60.21 -79.73,129.01 -88.33,206.58 q -2.93,26.35 2.42,54.21" id="path120" />
      <path stroke="#883d1d" vector-effect="non-scaling-stroke" d="m 354.41,762.7 q 2.77,14.71 9.41,29.12" id="path121" />
      <path stroke="#481e10" vector-effect="non-scaling-stroke" d="m 363.82,791.82 q 6.15,14.47 17.16,27.47 c 4.27,5.02 5.88,10.42 3.93,16.68 -0.94,3.02 -2.05,6.24 -2.43,9.05 -2.52,18.59 12.95,25.25 28.28,27.74 q 27.5,4.45 57.79,2.22" id="path122" />
      <path stroke="#3d130a" vector-effect="non-scaling-stroke" d="m 468.55,874.98 q 9.93,-0.62 21.12,-2.82 1.1,-0.21 0.4,-1.09 c -29.92,-37.66 -38.63,-93.34 -40.6,-141.16" id="path123" />
      <path stroke="#481e10" vector-effect="non-scaling-stroke" d="m 449.47,729.91 q -0.3,-20.52 1.33,-41.19 c 0.59,-7.44 9.05,-8.64 9,-1.22 -0.34,49.05 2.5,99.5 21.26,145.47 14.92,36.55 39.81,57.19 80.19,59.72 a 0.47,0.46 -89.5 0 0 0.49,-0.49 q -0.58,-12.09 -6.53,-22.53 c -0.85,-1.48 -1.64,-4.19 -0.68,-5.37 3.54,-4.33 7.01,-2.17 9.74,1.47 q 8.66,11.49 9.09,26.01 a 0.66,0.66 0 0 0 0.71,0.64 q 13.07,-0.97 25.45,-5.24 a 0.83,0.83 0 0 0 0.57,-0.79 q -0.05,-14.25 -7.26,-26.41 c -1.45,-2.46 -1.22,-4.67 1.05,-6.31 8.97,-6.5 16.5,21.98 17.31,26.78 q 0.1,0.63 0.67,0.33 3.11,-1.66 5.04,-4.63" id="path124" />
      <path stroke="#3d130a" vector-effect="non-scaling-stroke" d="m 616.9,876.15 q 8.29,-11.41 4.18,-24.75 c -4.86,-15.81 -9.53,-30.87 -11.23,-47.44 q -5.49,-53.74 -4.43,-107.78 0.21,-10.48 1.34,-20.96 c 0.81,-7.5 9.29,-3.97 9.27,0.28 q -0.25,54.94 3.12,101.81 c 1.36,18.87 2.5,35.64 7.66,52.49 2.8,9.17 6.23,18.47 7.11,27.97 a 0.97,0.97 0 0 0 0.94,0.88 L 652.1,859 q 0.42,0.01 0.47,-0.41 c 1.68,-14.55 9.14,-30.86 11.41,-47.09 4.37,-31.13 4.91,-64.3 6.97,-96.45 q 0.51,-8.08 0.62,-16.61 c 0.11,-8.16 -0.39,-17.17 1.25,-25.17 q 0.63,-3.04 4.35,-2.89" id="path125" />
      <path stroke="#481e10" vector-effect="non-scaling-stroke" d="m 677.17,670.38 2.06,2.01 q 0.37,0.36 0.4,0.88 3.5,63.06 -2.37,125.92 -1.86,20.02 -5.49,31.57 c -4.81,15.33 -14.76,38.54 2.88,50.55 a 0.43,0.43 0 0 0 0.67,-0.3 c 0.93,-6.89 5.97,-24.38 12.51,-27.87 3.74,-2 8.58,2.51 6.37,6.05 q -7.88,12.63 -7.71,27.24 a 1.3,1.3 0 0 0 0.9,1.22 q 12.34,4.02 25.32,4.88 a 0.46,0.46 0 0 0 0.49,-0.44 q 0.51,-16.06 10.54,-28.09 c 3.97,-4.76 10.69,-0.72 8.08,4.66 -3.83,7.91 -6.56,14.43 -7.08,23.33 a 0.62,0.62 0 0 0 0.69,0.65 l 12.52,-1.39" id="path126" />
      <path stroke="#3d130a" vector-effect="non-scaling-stroke" d="m 737.95,891.25 c 73.98,-12.04 84.03,-106.63 87.84,-164.49 q 0.46,-6.94 0.04,-15.03 c -0.67,-12.91 0.31,-26.32 -1.33,-39.05 q -1.36,-10.57 -1.42,-20.62" id="path127" />
      <path stroke="#702712" vector-effect="non-scaling-stroke" d="m 823.08,652.06 q -0.22,-16.7 -2.93,-32.75 c -6.92,-41.02 -18.87,-80.27 -37.32,-117.62 q -0.28,-0.58 -0.85,-0.28 -21.02,11.04 -45.51,18" id="path128" />
      <path stroke="#3d130a" vector-effect="non-scaling-stroke" d="m 736.47,519.41 q -32.31,8.65 -66.22,11.58 c -52.7,4.54 -107.98,2.38 -158.66,-9.07" id="path129" />
      <path stroke="#702712" vector-effect="non-scaling-stroke" d="m 511.59,521.92 q -27.09,-6.78 -51.26,-18.6" id="path130" />
      <path stroke="#793016" vector-effect="non-scaling-stroke" d="m 460.33,503.32 -14.12,-7.9 q -0.5,-0.28 -0.86,0.16 l -5.03,6.33" id="path131" />
      <path stroke="#cf5626" vector-effect="non-scaling-stroke" d="m 460.33,503.32 -8.6,9.75" id="path132" />
      <path stroke="#ec7c46" vector-effect="non-scaling-stroke" d="M 451.73,513.07 440.32,501.91" id="path133" />
      <path stroke="#93391a" vector-effect="non-scaling-stroke" d="m 511.59,521.92 -21.97,15.5" id="path134" />
      <path stroke="#9f4420" vector-effect="non-scaling-stroke" d="m 489.62,537.42 q -0.24,0.57 -1.17,0.79" id="path135" />
      <path stroke="#de632d" vector-effect="non-scaling-stroke" d="m 488.45,538.21 q -0.21,-0.58 -1.27,-1.14 -19.1,-10.07 -35.45,-24" id="path136" />
      <path stroke="#fb894c" vector-effect="non-scaling-stroke" d="m 451.73,513.07 c -47.57,55.81 -78.84,121.52 -90.91,194 q -2.66,15.97 -3.31,42.93 -0.08,3.17 -1.7,11.85 -0.09,0.49 -0.56,0.62 l -0.84,0.23" id="path137" />
      <path stroke="#b75a2b" vector-effect="non-scaling-stroke" d="M 488.45,538.21 C 428.94,586.89 385.29,655.92 369.44,731.44 q -6.11,29.16 -5.62,60.38" id="path138" />
      <path stroke="#6c3018" vector-effect="non-scaling-stroke" d="m 737.95,891.25 c 1.52,-10.26 11.2,-19.73 18.31,-26.73 10.85,-10.71 17.72,-21.99 23.43,-36.83 12.36,-32.16 18.74,-64.74 21.35,-99.19 0.49,-6.41 0.41,-13.95 -0.36,-20.42 q -0.8,-6.64 0.48,-13.33 c 0.37,-1.94 -1.38,-6.94 -1.5,-9.7 q -1.14,-25.51 -3.04,-44.61 -4.1,-41.04 -29.85,-72.8 c -12.83,-15.82 -28.28,-20.72 -48.02,-14.31 q -31.85,10.33 -65.2,12.86 c -56.62,4.3 -110.48,-2.01 -161.99,-26.72 q -1.15,-0.55 -1.94,-2.05" id="path139" />
      <path stroke="#6c3018" vector-effect="non-scaling-stroke" d="m 677.17,670.38 c -6.77,-10.6 -16.49,-17.42 -29.17,-18.87 -15.28,-1.76 -27.81,4.05 -39.48,13.76 q -3.76,3.13 -6.29,8.94 -7.37,16.9 -8.73,33.28 c -4.47,53.72 -2.7,110.09 20.65,161.24 1.03,2.25 1.22,5.1 2.75,7.42" id="path140" />
      <path stroke="#6c3018" vector-effect="non-scaling-stroke" d="m 449.47,729.91 q -1.98,10.95 -2.2,21.84 c -0.82,42.45 3.59,83.52 21.28,123.23" id="path141" />
      <path stroke="#93391a" vector-effect="non-scaling-stroke" d="m 823.08,652.06 q -5.38,-10.03 -6.56,-13.1 -4.57,-11.86 -11.45,-26.77 -24.68,-53.47 -68.6,-92.78" id="path142" />
      <path stroke="#3d130a" vector-effect="non-scaling-stroke" d="m 825.5,811.07 q -7.01,25.91 -20.68,48.98 -0.34,0.57 0.33,0.6 c 14.91,0.64 42.49,-3.27 37.7,-25.45 -2.23,-10.29 -9.98,-17.04 -16.81,-24.26 a 0.32,0.32 0 0 0 -0.54,0.13" id="path143" />
      <path stroke="#fbbc9b" vector-effect="non-scaling-stroke" d="m 524.7,313.3 q 11.24,8.7 25.59,5.88 c 6.78,-1.34 11.23,-7 11.17,-13.95 -0.13,-14.6 -17.44,-18.95 -29.23,-17.53 -14.35,1.73 -19.05,16.69 -7.53,25.6" id="path144" />
      <path stroke="#fbbc9b" vector-effect="non-scaling-stroke" d="m 677.47,301.97 c -2.04,8.65 3.8,16.37 12.76,17.5 q 13.59,1.71 23.26,-5.79 c 6.39,-4.95 9.67,-13.02 4.4,-19.98 -8.78,-11.62 -36.87,-6.77 -40.42,8.27" id="path145" />
      <path stroke="#8c8081" vector-effect="non-scaling-stroke" d="m 509.2121,357.0166 a 7.93,6.96 134.7 0 0 10.5251,-0.741 7.93,6.96 134.7 0 0 0.6307,-10.5322 7.93,6.96 134.7 0 0 -10.5251,0.741 7.93,6.96 134.7 0 0 -0.6307,10.5322" id="path146" />
      <path stroke="#8c8081" vector-effect="non-scaling-stroke" d="m 700.0361,357.0024 a 7.91,6.92 134.7 0 0 10.4826,-0.7549 7.91,6.92 134.7 0 0 0.6452,-10.4899 7.91,6.92 134.7 0 0 -10.4826,0.7549 7.91,6.92 134.7 0 0 -0.6452,10.4899" id="path147" />
      <path stroke="#8c8081" vector-effect="non-scaling-stroke" d="m 619.86,436.47 q 12.94,18.9 36.37,16.35 c 8.38,-0.91 18.72,-6.69 22.47,-14.77 1.46,-3.15 3.62,-9.28 0.33,-12.07 -3.92,-3.33 -7.07,-1.33 -9.63,2.45 -11.86,17.52 -32.51,13.26 -42.51,-3.25 -1.98,-3.27 -1.17,-9.48 -1.12,-13.24 q 0,-0.48 0.46,-0.61 c 9.71,-2.82 23.8,-10.98 27.5,-21.47 3.54,-10.02 -9.84,-12.54 -16.3,-13.22 -9.78,-1.04 -44.49,-3.48 -49.86,6.57 -2.82,5.28 1.56,11.74 5.16,15.57 q 8.23,8.74 19.72,12.5 0.5,0.17 0.51,0.69 c 0.1,3.74 0.88,9.97 -1.15,13.2 -10.31,16.48 -31.95,21.11 -42.98,2.62 -3.77,-6.32 -12.04,-3.08 -10.77,3.98 3.72,20.62 29.85,25.6 45.95,17.82 q 8.94,-4.31 14.84,-13.11 a 0.61,0.61 0 0 1 1.01,-0.01" id="path148" />
      <path stroke="#854326" vector-effect="non-scaling-stroke" d="m 125.16,490.5 c -0.08,2.6 2.29,4.15 4.62,3.6 2.11,-0.51 3.29,-3.26 3.66,-5.17 6.87,-36.17 17.92,-74.29 54.48,-91.12 3.4,-1.56 7.79,-2.96 11.63,-4.44 a 2.85,2.8 85.5 0 0 1.76,-2.09 c 1.98,-9.83 -12.8,-5.25 -17.68,-3.52 -42.25,15.04 -57.18,62.12 -58.47,102.74" id="path149" />
      <path stroke="#fb894c" vector-effect="non-scaling-stroke" d="m 131.19,560.06 c 5.56,1.26 6.46,-4.09 6.55,-8.31 q 0.36,-16.78 -0.8,-33.52 c -0.24,-3.5 -2.91,-8.15 -7.14,-5.95 -7.1,3.71 -3.4,33.41 -2.7,39.04 0.34,2.73 0.8,8 4.09,8.74" id="path150" />
      <path stroke="#854326" vector-effect="non-scaling-stroke" d="m 142.24,628.14 c 2.18,4.43 8.85,3.19 9.11,-1.51 q 0.03,-0.68 -0.82,-5.25 -3.08,-16.55 -7.32,-32.85 c -1.69,-6.49 -9.73,-5.39 -10.03,1.62 -0.54,12.64 3.83,27.33 9.06,37.99" id="path151" />
      <path stroke="#854326" vector-effect="non-scaling-stroke" d="m 489.24,842.77 c 1.62,3.29 17.07,32.22 22.76,22.58 1.94,-3.28 -0.14,-5 -1.88,-7.55 Q 497.59,839.49 489.8,814.48 c -11.79,-37.86 -13.54,-77.79 -15.12,-117.64 -0.37,-9.43 -11.3,-10 -11.54,-0.6 -0.46,18.26 -0.35,36.94 1.97,55.08 1.41,10.99 2.4,20.84 4.61,33.63 0.61,3.58 1.92,7.33 2.76,11.05 3.66,16.25 9.4,31.84 16.76,46.77" id="path152" />
      <path stroke="#854326" vector-effect="non-scaling-stroke" d="m 390.3,859.7 c 2.75,5.33 9.41,7.23 11.99,0.37 a 1.52,1.51 -42.8 0 0 0.04,-0.93 c -1.17,-4.02 -3.03,-7.8 -3.62,-11.66 q -1.1,-7.14 -0.72,-10.47 c 0.38,-3.45 -3.89,-4 -5.91,-2.59 q -1.14,0.79 -2.25,3.07 -5.34,10.97 0.47,22.21" id="path153" />
   </g>
   <path fill="#190102" d="m 243.53764,669.28672 c -54.6,-1.43 -112.69,-31 -150.739997,-69.43 -81.449991,-82.3 -124.889991,-197.94 -112.799991,-313.31 3.43,-32.72 14.5599999,-69.14 40.14,-91.1 22.64,-19.44 52.52,-24.43 80.819988,-14.38 32.85,11.67 47.56,46.88 53.93,78.25 6.64,32.69 8.22,65.98 11.03,99.15 3.54,41.76 14.82,95.09 49.99,122.38 q 0.46,0.36 0.61,-0.2 1.47,-5.58 2.71,-11.06 c 14.72,-64.72 45.17,-121.79 87.43,-172.59 q 0.69,-0.83 -0.18,-1.47 c -30.73,-22.87 -49.33,-57.46 -47.39,-96.24 1.63,-32.52 10.28,-65.73 21.98,-95.99 q 0.18,-0.47 0.05,-0.95 c -5.14,-18.619997 -7.24,-37.470003 -7.54,-56.750003 -0.44,-26.94 2.02,-87 33.91,-98.34 q 7.09,-2.52 19.76,-1.86 c 31.71,1.66 64.08,17.15 89.64,35.909999 q 0.41,0.3 0.88,0.12 c 17.97,-6.609999 35.31,-8.789999 54.64,-9.899999 q 21.8,-1.25 43.61,0.41 c 15.23,1.15 32.02,3.47 46.11,9.639999 q 0.45,0.2 0.84,-0.09 c 28.02,-20.589999 63.64,-36.929999 99.02,-36.229999 45.71,0.91 45.92,83.39 44.07,113.34 q -1.5,24.150006 -6.95,43.840003 -0.13,0.47 0.04,0.92 15.11,38.74 20.98,82.6 c 6.62,49.4 -15.48,91.15 -57.11,117.04 a 0.66,0.67 60.9 0 0 -0.25,0.86 c 26.81,53.34 40.87,111.2 45.31,170.52 q 0.64,8.56 0.6,19.97 c -0.04,14.5 0.4,29.62 -0.43,43.42 q -1.98,32.61 -8.1,64.73 c -0.22,1.13 0.22,2.61 0.93,3.47 10.65,12.71 22.96,21.83 24.35,38.86 2.55,31.06 -32.95,36.34 -55.17,34.82 q -1.53,-0.11 -3.07,-0.08 a 1.21,1.19 18.8 0 0 -0.87,0.42 c -21.59,25.43 -53.62,34.87 -86.13,31.85 -20.32,-1.88 -49.72,-9.17 -55.06,-32.67 q -0.13,-0.56 -0.69,-0.62 -10.22,-1.07 -20.48,-0.37 a 0.73,0.74 6.2 0 0 -0.66,0.54 c -8.88,32.75 -60.5,36.44 -86.78,31.76 q -26.46,-4.71 -45.5,-21.03 -0.38,-0.32 -0.85,-0.18 c -20.91,5.84 -45,6.42 -66.5,5.13 -20.55,-1.24 -49.34,-3.1 -59.38,-24.62 a 0.84,0.84 0 0 0 -0.75,-0.49 z m 43.3,-597.199999 q 1.17,14.100002 6.03,28.789999 l 0.41,1.86 a 1.58,1.66 48.5 0 1 -0.08,0.93 c -11.48,29.24 -19.68,59.76 -22.48,91.36 q -1.33,15.01 1.45,28.87 2.39,11.32 7.61,22.39 c 16.18,33.18 48.9,54.53 83.58,65.72 30.69,10.13 65.19,16.13 98.44,16.49 19.02,2.01 38.26,0.84 57.3,0.08 32.27,-0.98 67.65,-5.61 97.94,-16.7 33.38,-10.81 63.8,-30.4 81.44,-61.36 q 0.94,-1.66 1.51,-4.2 1.22,-1.48 2.22,-3.84 8.27,-19.65 7.55,-40.62 c -1.09,-31.93 -9.91,-65.02 -21.51,-95.02 q -0.97,-2.53 -1,-4.21 -0.05,-2.49 0.92,-4.329997 4.08,-13.52 5.26,-26.480002 c 2.77,-23.110004 7.03,-115.320004 -32.93,-115.250004 -27.25,0.04 -53.66,10.51 -76.54,24.779999 l -16.43,11.0000007 c -2.17,1.91 -4.5,2.15 -7.28,0.88 q -12.54,-5.7199997 -26.24,-7.6699997 -44.77,-6.380001 -89.5,0.24 -13.35,1.98 -26.61,8.3999997 a 1.47,1.47 0 0 1 -0.94,0.12 l -2.14,-0.47 -18.32,-12.3600007 c -22.15,-13.779999 -47.74,-24.049999 -74.24,-24.959999 -17.38,-0.59 -25.69,12.4 -30.26,27.51 -8.41,27.84 -8.56,60.67 -5.16,88.050004 z M -10.132348,331.42672 q -0.42,2.14 -0.36,4.11 0.9399999,31.07 7.0599999,61.48 7.28,36.36 21.7400001,70.33 0.6,1.89 1.4,3.74 12.02,27.84 28.03,53.47 22.36,35.94 52.399988,66.48 l 1.58,1.55 q 19.71,19.68 43.92,34.15 28.61,17.33 61.93,25.99 0.59,0.15 1.28,-0.19 0.48,0.71 1.9,1.06 14.86,3.69 30.18,4.24 0.52,0.01 0.53,-0.51 0.09,-7.1 2.01,-13.4 c 1.3,-2.94 2.51,-5.91 0.22,-8.6 -20.3,-23.78 -28.72,-50.75 -32.76,-81.5 q -0.96,-19.39 0.35,-39.25 l 2.73,-20.12 q 0.07,-0.55 -0.37,-0.88 l -6.38,-4.77 c -9.23,-7.97 -14.81,-14.81 -22.26,-25.01 q -10.74,-17.66 -17.17,-36.34 -7.01,-21.85 -10.52,-43.55 c -0.9,-7.67 -2.16,-15.43 -2.75,-22.87 q -1.13,-14.38 -2.33,-28.16 -0.99,-16.53 -3.91,-43.15 -0.8,-7.31 -1.93,-11.07 -1.4,-16.81 -6.98,-32.38 c -7.81,-31.99 -28.28,-56.87 -63.109988,-58.75 -36.11,-1.95 -62.2,22.72 -74.2400001,54.57 -10.51,27.78 -13.7699999,59.79 -12.1899999,89.33 z m 321.209988,-21.73 c -48.74,60.21 -79.73,129.01 -88.33,206.58 q -2.93,26.35 2.42,54.21 2.77,14.71 9.41,29.12 6.15,14.47 17.16,27.47 c 4.27,5.02 5.88,10.42 3.93,16.68 -0.94,3.02 -2.05,6.24 -2.43,9.05 -2.52,18.59 12.95,25.25 28.28,27.74 q 27.5,4.45 57.79,2.22 9.93,-0.62 21.12,-2.82 1.1,-0.21 0.4,-1.09 c -29.92,-37.66 -38.63,-93.34 -40.6,-141.16 q -0.3,-20.52 1.33,-41.19 c 0.59,-7.44 9.05,-8.64 9,-1.22 -0.34,49.05 2.5,99.5 21.26,145.47 14.92,36.55 39.81,57.19 80.19,59.72 a 0.46,0.47 0.5 0 0 0.49,-0.49 q -0.58,-12.09 -6.53,-22.53 c -0.85,-1.48 -1.64,-4.19 -0.68,-5.37 3.54,-4.33 7.01,-2.17 9.74,1.47 q 8.66,11.49 9.09,26.01 a 0.66,0.66 0 0 0 0.71,0.64 q 13.07,-0.97 25.45,-5.24 a 0.83,0.83 0 0 0 0.57,-0.79 q -0.05,-14.25 -7.26,-26.41 c -1.45,-2.46 -1.22,-4.67 1.05,-6.31 8.97,-6.5 16.5,21.98 17.31,26.78 q 0.1,0.63 0.67,0.33 3.11,-1.66 5.04,-4.63 8.29,-11.41 4.18,-24.75 c -4.86,-15.81 -9.53,-30.87 -11.23,-47.44 q -5.49,-53.74 -4.43,-107.78 0.21,-10.48 1.34,-20.96 c 0.81,-7.5 9.29,-3.97 9.27,0.28 q -0.25,54.94 3.12,101.81 c 1.36,18.87 2.5,35.64 7.66,52.49 2.8,9.17 6.23,18.47 7.11,27.97 a 0.97,0.97 0 0 0 0.94,0.88 l 17.24,0.35 q 0.42,0.01 0.47,-0.41 c 1.68,-14.55 9.14,-30.86 11.41,-47.09 4.37,-31.13 4.91,-64.3 6.97,-96.45 q 0.51,-8.08 0.62,-16.61 c 0.11,-8.16 -0.39,-17.17 1.25,-25.17 q 0.63,-3.04 4.35,-2.89 l 2.06,2.01 q 0.37,0.36 0.4,0.88 3.5,63.06 -2.37,125.92 -1.86,20.02 -5.49,31.57 c -4.81,15.33 -14.76,38.54 2.88,50.55 a 0.43,0.43 0 0 0 0.67,-0.3 c 0.93,-6.89 5.97,-24.38 12.51,-27.87 3.74,-2 8.58,2.51 6.37,6.05 q -7.88,12.63 -7.71,27.24 a 1.3,1.3 0 0 0 0.9,1.22 q 12.34,4.02 25.32,4.88 a 0.46,0.46 0 0 0 0.49,-0.44 q 0.51,-16.06 10.54,-28.09 c 3.97,-4.76 10.69,-0.72 8.08,4.66 -3.83,7.91 -6.56,14.43 -7.08,23.33 a 0.62,0.62 0 0 0 0.69,0.65 l 12.52,-1.39 c 73.98,-12.04 84.03,-106.63 87.84,-164.49 q 0.46,-6.94 0.04,-15.03 c -0.67,-12.91 0.31,-26.32 -1.33,-39.05 q -1.36,-10.57 -1.42,-20.62 -0.22,-16.7 -2.93,-32.75 c -6.92,-41.02 -18.87,-80.27 -37.32,-117.62 q -0.28,-0.58 -0.85,-0.28 -21.02,11.04 -45.51,18 -32.31,8.65 -66.22,11.58 c -52.7,4.54 -107.98,2.38 -158.66,-9.07 q -27.09,-6.78 -51.26,-18.6 l -14.12,-7.9 q -0.5,-0.28 -0.86,0.16 z m 385.18,309.16 q -7.01,25.91 -20.68,48.98 -0.34,0.57 0.33,0.6 c 14.91,0.64 42.49,-3.27 37.7,-25.45 -2.23,-10.29 -9.98,-17.04 -16.81,-24.26 a 0.32,0.32 0 0 0 -0.54,0.13 z" id="path169" />
   <path fill="#ffffff" d="m 396.49764,-18.513284 q -1.49,2.320001 -2.95,4.560001 c -5.37,8.2199997 -17.75,13.82999974 -27.1,8.7699997 q -6.71,-3.62 -15.65,-7.7899997 c -8.99,-4.200001 -31.1,-10.53 -37.78,0.07 q -5.16,8.1899997 -6.86,19.0199997 -2.98,19.0900003 -3.2,38.3400003 c -0.14,13.2 -2.52,23.15 -16.12,27.630004 -3.4,-27.380004 -3.25,-60.210004 5.16,-88.050004 4.57,-15.11 12.88,-28.1 30.26,-27.51 26.5,0.91 52.09,11.18 74.24,24.959999 z" id="path170" />
   <path fill="#ffffff" d="m 693.42764,71.816721 c -10.59,-2.16 -16.28,-12.900004 -16.1,-23.020004 q 0.4,-22.37 -3.62,-44.2900003 c -1.58,-8.59 -5.27,-22.1200007 -15.97,-22.9400007 -16.36,-1.24 -30.1,5.490001 -44,13.2300007 -11.6,6.47 -25.1,-3.09 -29.78,-13.4500007 22.88,-14.269999 49.29,-24.739999 76.54,-24.779999 39.96,-0.07 35.7,92.14 32.93,115.250004 z" id="path171" />
   <path fill="#e1c8c0" d="m 583.95764,-18.653284 c 4.68,10.3600007 18.18,19.9200007 29.78,13.4500007 13.9,-7.7399997 27.64,-14.4700007 44,-13.2300007 10.7,0.82 14.39,14.3500007 15.97,22.9400007 q 4.02,21.9200003 3.62,44.2900003 c -0.18,10.12 5.51,20.860004 16.1,23.020004 q -1.18,12.960002 -5.26,26.480002 -9.76,-18.71 -22.7,-33.980006 -0.21,-0.26 -0.25,-1.02 3.2,-20.32 1.12,-43.32 c -0.73,-8.02 -2.75,-19.80000026 -7.94,-25.6200003 -5.11,-5.7499997 -17.08,-3.2 -24.13,-0.27 q -14.81,6.15000004 -27.3,17.7500003 -16.07,-10.2900003 -33.9,-17.2000003 l -5.54,-2.29 z" id="path172" />
   <path fill="#e1c8c0" d="m 396.49764,-18.513284 18.32,12.3600007 q -19.88,7.94 -37.76,19.7400003 c -0.38,0.25 -0.88,0.32 -1.32,0.5 -11,-10.8000003 -27.09,-21.8100003 -41.95,-23.0000003 -7.76,-0.61 -12.32,1.44 -15.14,8.65000004 -7.9,20.19000026 -6.83,46.28000026 -2.86,67.40000026 q -10.14,12.620006 -14.65,19.550006 -1.79,2.75 -8.27,14.189997 -4.86,-14.689997 -6.03,-28.789999 c 13.6,-4.480004 15.98,-14.430004 16.12,-27.630004 q 0.22,-19.25 3.2,-38.3400003 1.7,-10.83 6.86,-19.0199997 c 6.68,-10.6 28.79,-4.270001 37.78,-0.07 q 8.94,4.1699997 15.65,7.7899997 c 9.35,5.06000004 21.73,-0.55 27.1,-8.7699997 q 1.46,-2.24 2.95,-4.560001 z" id="path173" />
   <path fill="#ff9961" d="m 567.52764,-7.6532833 5.54,2.29 -0.23,0.42 q -0.23,0.4 0.14,0.69 l 10.26,8.07 a 1.83,1.83 0 0 1 -0.87,3.25 c -6.25,0.9 -13.92,-1.77 -21.79,-3.6 q -41.29,-9.57 -84.38,-6.31 c -50.21,3.80000004 -94.11,28.4600003 -131.03,62.1400003 -18.18,16.580006 -33.9,36.580006 -44.16,59.060003 q -18.07,39.62 -23.98,82.89 c -0.69,5.07 -0.8,12.58 -1.96,19.08 q -0.6,3.31 -2.9,3.57 -2.78,-13.86 -1.45,-28.87 c 2.8,-31.6 11,-62.12 22.48,-91.36 a 1.58,1.66 48.5 0 0 0.08,-0.93 l -0.41,-1.86 q 6.48,-11.439997 8.27,-14.189997 4.51,-6.93 14.65,-19.550006 26.55,-30.43 59.22,-52.33 0.27,-0.18 0.44,-0.47 0.16,-0.26 0.29,-0.25 c 0.44,-0.18 0.94,-0.25 1.32,-0.5 q 17.88,-11.8000003 37.76,-19.7400003 l 2.14,0.47 a 1.47,1.47 0 0 0 0.94,-0.12 q 13.26,-6.4199997 26.61,-8.3999997 44.73,-6.620001 89.5,-0.24 13.7,1.95 26.24,7.6699997 c 2.78,1.27 5.11,1.03 7.28,-0.88 z" id="path174" />
   <path fill="#602511" d="m 375.73764,14.086717 q -0.13,-0.01 -0.29,0.25 -0.17,0.29 -0.44,0.47 -32.67,21.9 -59.22,52.33 c -3.97,-21.12 -5.04,-47.21 2.86,-67.40000026 2.82,-7.21000004 7.38,-9.26000004 15.14,-8.65000004 14.86,1.19 30.95,12.2 41.95,23.0000003 z" id="path175" />
   <path fill="#602511" d="m 665.21764,63.296717 q -0.15,-0.01 -0.29,-0.01 a 0.4,0.39 69.1 0 1 -0.3,-0.14 q -22.39,-26.89 -51.08,-46.87 l -6.58,-4.44 q 12.49,-11.60000026 27.3,-17.7500003 c 7.05,-2.93 19.02,-5.4799997 24.13,0.27 5.19,5.82000004 7.21,17.6000003 7.94,25.6200003 q 2.08,23 -1.12,43.32 z" id="path176" />
   <path fill="#f67937" d="m 573.06764,-5.3632833 q 17.83,6.91 33.9,17.2000003 l 6.58,4.44 q 0.04,0.5 -0.12,0.94 -0.16,0.45 0.17,0.79 c 24.58,25.45 44.25,51.280004 55.95,85.260003 11.15,32.41 18.62,66.72 16.14,101.2 a 1.68,1.71 61.9 0 1 -0.23,0.73 l -1.26,2.15 c -17.18,-17.88 -42.62,-24.5 -64.22,-9.68 l -9.04,-8.7 q 5.46,-14.78 -0.12,-28.85 1.58,-5.17 -1.1,-11.08 c -10.62,-23.4 -43.06,-26.41 -50.93,0.51 q -2.35,8.06 -0.01,13.85 -2.24,8.44 -0.94,18.14 -2.15,-1.18 -9.39,-5.7 c -22.03,-13.75 -52.77,-17.56 -78.62,-13.47 q -25.26,4 -47.44,19.37 1.43,-10.35 -1.31,-18.62 l 1.57,-0.9 q 0.42,-0.25 0.39,-0.73 c -0.75,-12.65 -3.68,-23.91 -16.51,-29.18 q -13.99,-5.75 -26.85,4.46 -11.8,9.36 -10.73,23.53 -4.93,14.76 0.38,28.7 l -9.09,8.82 c -17.35,-12.6 -38.6,-10.21 -55.28,1.89 q -21.1,15.29 -24.38,41.48 0.61,2.15 -0.8,5.1 -5.22,-11.07 -7.61,-22.39 2.3,-0.26 2.9,-3.57 c 1.16,-6.5 1.27,-14.01 1.96,-19.08 q 5.91,-43.27 23.98,-82.89 c 10.26,-22.479997 25.98,-42.479997 44.16,-59.060003 36.92,-33.68 80.82,-58.34000026 131.03,-62.1400003 q 43.09,-3.26 84.38,6.31 c 7.87,1.83 15.54,4.5 21.79,3.6 a 1.83,1.83 0 0 0 0.87,-3.25 l -10.26,-8.07 q -0.37,-0.29 -0.14,-0.69 z m -177.61,126.4500033 q 11.24,8.7 25.59,5.88 c 6.78,-1.34 11.23,-7 11.17,-13.95 -0.13,-14.599997 -17.44,-18.949997 -29.23,-17.529997 -14.35,1.73 -19.05,16.689997 -7.53,25.599997 z m 152.77,-11.33 c -2.04,8.65 3.8,16.37 12.76,17.5 q 13.59,1.71 23.26,-5.79 c 6.39,-4.95 9.67,-13.02 4.4,-19.98 -8.78,-11.619997 -36.87,-6.769997 -40.42,8.27 z" id="path177" inkscape:label="path177" />
   <path fill="#d85f2a" d="m 613.54764,16.276717 q 28.69,19.98 51.08,46.87 a 0.4,0.39 69.1 0 0 0.3,0.14 q 0.14,0 0.29,0.01 0.04,0.76 0.25,1.02 12.94,15.270006 22.7,33.980006 -0.97,1.839997 -0.92,4.329997 0.03,1.68 1,4.21 c 11.6,30 20.42,63.09 21.51,95.02 q 0.72,20.97 -7.55,40.62 -1,2.36 -2.22,3.84 -0.85,-22.05 -14.99,-38.11 l -0.8,-0.86 1.26,-2.15 a 1.68,1.71 61.9 0 0 0.23,-0.73 c 2.48,-34.48 -4.99,-68.79 -16.14,-101.2 -11.7,-33.979999 -31.37,-59.810003 -55.95,-85.260003 q -0.33,-0.34 -0.17,-0.79 0.16,-0.44 0.12,-0.94 z" id="path178" />
   <path fill="#ffffff" d="m 395.45764,121.08672 c -11.52,-8.91 -6.82,-23.869997 7.53,-25.599997 11.79,-1.42 29.1,2.93 29.23,17.529997 0.06,6.95 -4.39,12.61 -11.17,13.95 q -14.35,2.82 -25.59,-5.88 z" id="path179" />
   <path fill="#ffffff" d="m 560.98764,127.25672 c -8.96,-1.13 -14.8,-8.85 -12.76,-17.5 3.55,-15.039997 31.64,-19.889997 40.42,-8.27 5.27,6.96 1.99,15.03 -4.4,19.98 q -9.67,7.5 -23.26,5.79 z" id="path180" />
   <path fill="#d85f2a" d="m 421.07764,163.11672 c -6.88,-19.62 -29.43,-28.2 -45.35,-12.37 q -2.75,2.73 -6.78,9.55 -1.07,-14.17 10.73,-23.53 12.86,-10.21 26.85,-4.46 c 12.83,5.27 15.76,16.53 16.51,29.18 q 0.03,0.48 -0.39,0.73 z" id="path181" />
   <path fill="#d85f2a" d="m 610.81764,160.11672 c -12.39,-25.72 -41.86,-21.99 -52.04,3.28 q -2.34,-5.79 0.01,-13.85 c 7.87,-26.92 40.31,-23.91 50.93,-0.51 q 2.68,5.91 1.1,11.08 z" id="path182" />
   <path fill="#190102" d="m 421.07764,163.11672 q 2.74,8.27 1.31,18.62 -4.14,17.91 -21.31,24.58 -21.91,2.91 -31.75,-17.32 -5.31,-13.94 -0.38,-28.7 4.03,-6.82 6.78,-9.55 c 15.92,-15.83 38.47,-7.25 45.35,12.37 z m -41.1079,1.6866 a 6.96,7.93 44.7 0 0 10.5251,-0.741 6.96,7.93 44.7 0 0 0.6307,-10.5322 6.96,7.93 44.7 0 0 -10.5251,0.741 6.96,7.93 44.7 0 0 -0.6307,10.5322 z" id="path183" />
   <path fill="#190102" d="m 610.81764,160.11672 q 5.58,14.07 0.12,28.85 c -6.14,12.61 -17.09,19.64 -31.69,17.3 q -5.84,-2.45 -7.43,-3.54 -11.09,-7.65 -13.98,-21.19 -1.3,-9.7 0.94,-18.14 c 10.18,-25.27 39.65,-29 52.04,-3.28 z m -40.0239,4.6724 a 6.92,7.91 44.7 0 0 10.4826,-0.7549 6.92,7.91 44.7 0 0 0.6452,-10.4899 6.92,7.91 44.7 0 0 -10.4826,0.7549 6.92,7.91 44.7 0 0 -0.6452,10.4899 z" id="path184" />
   <ellipse fill="#ffffff" cx="-158.05656" cy="-386.00409" transform="rotate(134.7)" rx="7.9299998" ry="6.96" id="ellipse184" />
   <ellipse fill="#ffffff" cx="-292.2713" cy="-521.63171" transform="rotate(134.7)" rx="7.9099998" ry="6.9200001" id="ellipse185" />
   <path fill="#ffffff" d="m 557.83764,181.53672 q 2.89,13.54 13.98,21.19 1.59,1.09 7.43,3.54 c 2.19,5.02 4.72,10.11 6.23,14.91 8.26,26.25 4.28,55.23 -13.42,76.84 l -2.15,2.51 c -1.67,-0.79 -2.77,-0.07 -4.23,0.14 q -72.81,10.77 -146.42,0.61 c -2.65,-0.36 -6.9,-2 -8.5,-0.33 l -2.76,-3.17 c -21.27,-26.13 -22.31,-62.24 -6.92,-91.46 q 17.17,-6.67 21.31,-24.58 22.18,-15.37 47.44,-19.37 c 25.85,-4.09 56.59,-0.28 78.62,13.47 q 7.24,4.52 9.39,5.7 z m -67.22,62.72 q 12.94,18.9 36.37,16.35 c 8.38,-0.91 18.72,-6.69 22.47,-14.77 1.46,-3.15 3.62,-9.28 0.33,-12.07 -3.92,-3.33 -7.07,-1.33 -9.63,2.45 -11.86,17.52 -32.51,13.26 -42.51,-3.25 -1.98,-3.27 -1.17,-9.48 -1.12,-13.24 q 0,-0.48 0.46,-0.61 c 9.71,-2.82 23.8,-10.98 27.5,-21.47 3.54,-10.02 -9.84,-12.54 -16.3,-13.22 -9.78,-1.04 -44.49,-3.48 -49.86,6.57 -2.82,5.28 1.56,11.74 5.16,15.57 q 8.23,8.74 19.72,12.5 0.5,0.17 0.51,0.69 c 0.1,3.74 0.88,9.97 -1.15,13.2 -10.31,16.48 -31.95,21.11 -42.98,2.62 -3.77,-6.32 -12.04,-3.08 -10.77,3.98 3.72,20.62 29.85,25.6 45.95,17.82 q 8.94,-4.31 14.84,-13.11 a 0.61,0.61 0 0 1 1.01,-0.01 z" id="path185" />
   <path fill="#190102" d="m 490.61764,244.25672 a 0.61,0.61 0 0 0 -1.01,0.01 q -5.9,8.8 -14.84,13.11 c -16.1,7.78 -42.23,2.8 -45.95,-17.82 -1.27,-7.06 7,-10.3 10.77,-3.98 11.03,18.49 32.67,13.86 42.98,-2.62 2.03,-3.23 1.25,-9.46 1.15,-13.2 q -0.01,-0.52 -0.51,-0.69 -11.49,-3.76 -19.72,-12.5 c -3.6,-3.83 -7.98,-10.29 -5.16,-15.57 5.37,-10.05 40.08,-7.61 49.86,-6.57 6.46,0.68 19.84,3.2 16.3,13.22 -3.7,10.49 -17.79,18.65 -27.5,21.47 q -0.46,0.13 -0.46,0.61 c -0.05,3.76 -0.86,9.97 1.12,13.24 10,16.51 30.65,20.77 42.51,3.25 2.56,-3.78 5.71,-5.78 9.63,-2.45 3.29,2.79 1.13,8.92 -0.33,12.07 -3.75,8.08 -14.09,13.86 -22.47,14.77 q -23.43,2.55 -36.37,-16.35 z" id="path186" />
   <path fill="#773a1e" d="m 139.40764,246.27672 q -1.79,0.34 -1.22,3.74 c 0.76,4.48 4.31,21.06 2.52,24.49 -29.86,-20.12 -78.389988,-17.08 -107.519988,2.97 q -21.62,14.89 -34.9400001,38.49 -4.05,7.18 -8.3799999,15.46 c -1.58,-29.54 1.6799999,-61.55 12.1899999,-89.33 12.0400001,-31.85 38.1300001,-56.52 74.2400001,-54.57 34.829988,1.88 55.299988,26.76 63.109988,58.75 z m -143.4899881,52.01 c -0.08,2.6 2.29,4.15 4.61999995,3.6 2.11000005,-0.51 3.29000005,-3.26 3.66000005,-5.17 6.8700001,-36.17 17.9200001,-74.29 54.4800001,-91.12 3.4,-1.56 7.79,-2.96 11.63,-4.44 a 2.85,2.8 85.5 0 0 1.76,-2.09 c 1.98,-9.83 -12.8,-5.25 -17.68,-3.52 -42.25,15.04 -57.1800001,62.12 -58.4700001,102.74 z" id="path187" />
   <path fill="#924b2e" d="m 369.32764,188.99672 q 9.84,20.23 31.75,17.32 c -15.39,29.22 -14.35,65.33 6.92,91.46 l -1.03,1.01 q -0.28,0.28 -0.68,0.21 -31.26,-5.36 -56.98,-14.96 -5.22,-1.95 -6.72,-2.19 0.23,1.15 -0.26,-0.64 c -8.18,-30.03 -3.01,-59.95 17.91,-83.39 z" id="path188" />
   <path fill="#924b2e" d="m 610.93764,188.96672 9.04,8.7 c 19.37,23.76 25.64,48.1 19.16,78.61 l -0.45,1.74 q -8.34,3.7 -15.97,6.83 -23.6,9.66 -48.72,14.14 -0.54,0.09 -0.85,-0.36 -0.52,-0.79 -1.09,-0.61 c 17.7,-21.61 21.68,-50.59 13.42,-76.84 -1.51,-4.8 -4.04,-9.89 -6.23,-14.91 14.6,2.34 25.55,-4.69 31.69,-17.3 z" id="path189" />
   <path fill="#ffffff" d="m 360.23764,197.81672 c -20.92,23.44 -26.09,53.36 -17.91,83.39 -24.26,-9.75 -43.58,-22.04 -61.75,-40.02 q 3.28,-26.19 24.38,-41.48 c 16.68,-12.1 37.93,-14.49 55.28,-1.89 z" id="path190" />
   <path fill="#ffffff" d="m 684.19764,207.34672 0.8,0.86 q -0.27,4.83 -1.91,11.65 -9.14,37.86 -42.59,56.64 -0.69,0.38 -1.36,-0.22 c 6.48,-30.51 0.21,-54.85 -19.16,-78.61 21.6,-14.82 47.04,-8.2 64.22,9.68 z" id="path191" />
   <path fill="#924b2e" d="m 0.53765185,301.88672 c -2.32999995,0.55 -4.69999995,-1 -4.61999995,-3.6 1.29,-40.62 16.2200001,-87.7 58.4700001,-102.74 4.88,-1.73 19.66,-6.31 17.68,3.52 a 2.85,2.8 85.5 0 1 -1.76,2.09 c -3.84,1.48 -8.23,2.88 -11.63,4.44 -36.56,16.83 -47.61,54.95 -54.4800001,91.12 -0.37,1.91 -1.55,4.66 -3.66000005,5.17 z" id="path192" />
   <path fill="#e1c8c0" d="m 684.99764,208.20672 q 14.14,16.06 14.99,38.11 -0.57,2.54 -1.51,4.2 c -17.64,30.96 -48.06,50.55 -81.44,61.36 q 16.5,-13.01 21.65,-33.86 l 0.45,-1.74 q 0.67,0.6 1.36,0.22 33.45,-18.78 42.59,-56.64 1.64,-6.82 1.91,-11.65 z" id="path193" />
   <path fill="#e1c8c0" d="m 280.57764,241.18672 c 18.17,17.98 37.49,30.27 61.75,40.02 q 0.49,1.79 0.26,0.64 5.76,18.76 20.44,29.52 0.18,0.14 0.2,0.36 0.01,0.15 0.13,0.28 c -34.68,-11.19 -67.4,-32.54 -83.58,-65.72 q 1.41,-2.95 0.8,-5.1 z" id="path194" />
   <path fill="#602511" d="m 139.40764,246.27672 q 5.58,15.57 6.98,32.38 l -4.45,-2.79 -1.23,-1.36 c 1.79,-3.43 -1.76,-20.01 -2.52,-24.49 q -0.57,-3.4 1.22,-3.74 z" id="path195" />
   <path fill="#f67937" d="m 140.70764,274.50672 1.23,1.36 1.75,49.54 q 0.01,0.33 -0.24,0.55 -0.11,0.09 -0.25,0.21 -14.51,-9.48 -31.36,-11.98 c -56.139988,-8.33 -98.759988,33.11 -114.9799881,82.76 q -0.04,0.12 -0.16,0.09 -0.07,-0.01 -0.13,-0.02 -6.12,-30.41 -7.0599999,-61.48 -0.06,-1.97 0.36,-4.11 4.3299999,-8.28 8.3799999,-15.46 13.3200001,-23.6 34.9400001,-38.49 c 29.13,-20.05 77.659988,-23.09 107.519988,-2.97 z m -138.7599881,93.34 c 5.56,1.26 6.46,-4.09 6.55,-8.31 q 0.36,-16.78 -0.8,-33.52 c -0.24,-3.5 -2.91,-8.15 -7.14000005,-5.95 -7.09999995,3.71 -3.39999995,33.41 -2.69999995,39.04 0.34,2.73 0.8,8 4.09,8.74 z" id="path196" />
   <path fill="#c64d22" d="m 141.93764,275.86672 4.45,2.79 q 1.13,3.76 1.93,11.07 2.92,26.62 3.91,43.15 l -7.77,-5.79 q -0.52,-0.16 -1.26,-0.92 0.14,-0.12 0.25,-0.21 0.25,-0.22 0.24,-0.55 z" id="path197" />
   <path fill="#773a1e" d="m 638.68764,278.01672 q -5.15,20.85 -21.65,33.86 c -30.29,11.09 -65.67,15.72 -97.94,16.7 q 7.07,-2.34 13.54,-4.52 21.58,-7.29 37.27,-23.53 l 2.15,-2.51 q 0.57,-0.18 1.09,0.61 0.31,0.45 0.85,0.36 25.12,-4.48 48.72,-14.14 7.63,-3.13 15.97,-6.83 z" id="path198" />
   <path fill="#773a1e" d="m 407.99764,297.77672 2.76,3.17 c 14.79,15.31 30.9,21.68 51.04,27.55 -33.25,-0.36 -67.75,-6.36 -98.44,-16.49 q -0.12,-0.13 -0.13,-0.28 -0.02,-0.22 -0.2,-0.36 -14.68,-10.76 -20.44,-29.52 1.5,0.24 6.72,2.19 25.72,9.6 56.98,14.96 0.4,0.07 0.68,-0.21 z" id="path199" />
   <path fill="#e1c8c0" d="m 569.90764,300.52672 q -15.69,16.24 -37.27,23.53 -6.47,2.18 -13.54,4.52 c -19.04,0.76 -38.28,1.93 -57.3,-0.08 -20.14,-5.87 -36.25,-12.24 -51.04,-27.55 1.6,-1.67 5.85,-0.03 8.5,0.33 q 73.61,10.16 146.42,-0.61 c 1.46,-0.21 2.56,-0.93 4.23,-0.14 z" id="path200" />
   <path fill="#d85f2a" d="m 331.08764,311.10672 -8.6,9.75 -11.41,-11.16 5.03,-6.33 q 0.36,-0.44 0.86,-0.16 z" id="path201" />
   <path fill="#c64d22" d="m 693.83764,459.84672 q -5.38,-10.03 -6.56,-13.1 -4.57,-11.86 -11.45,-26.77 -24.68,-53.47 -68.6,-92.78 24.49,-6.96 45.51,-18 0.57,-0.3 0.85,0.28 c 18.45,37.35 30.4,76.6 37.32,117.62 q 2.71,16.05 2.93,32.75 z" id="path202" />
   <path fill="#ff9961" d="m 311.07764,309.69672 11.41,11.16 c -47.57,55.81 -78.84,121.52 -90.91,194 q -2.66,15.97 -3.31,42.93 -0.08,3.17 -1.7,11.85 -0.09,0.49 -0.56,0.62 l -0.84,0.23 q -5.35,-27.86 -2.42,-54.21 c 8.6,-77.57 39.59,-146.37 88.33,-206.58 z" id="path203" />
   <path fill="#c64d22" d="m 331.08764,311.10672 q 24.17,11.82 51.26,18.6 l -21.97,15.5 q -0.24,0.57 -1.17,0.79 -0.21,-0.58 -1.27,-1.14 -19.1,-10.07 -35.45,-24 z" id="path204" />
   <path fill="#773a1e" d="m 143.19764,326.16672 q 0.74,0.76 1.26,0.92 -0.81,1.03 -0.73,3.27 1,31.38 2.08,46.43 0.11,1.44 -0.56,1.85 c -60.689997,-15.96 -114.219988,32.96 -126.939988,88.71 q -14.4600001,-33.97 -21.7400001,-70.33 0.06,0.01 0.13,0.02 0.12,0.03 0.16,-0.09 c 16.2200001,-49.65 58.8400001,-91.09 114.9799881,-82.76 q 16.85,2.5 31.36,11.98 z m -130.199988,109.76 c 2.18,4.43 8.85,3.19 9.11,-1.51 q 0.03,-0.68 -0.82,-5.25 -3.08,-16.55 -7.32,-32.85 c -1.69,-6.49 -9.7300001,-5.39 -10.0300001,1.62 -0.54,12.64 3.83,27.33 9.0600001,37.99 z" id="path205" />
   <path fill="#ff9961" d="m 1.9476519,367.84672 c -3.29,-0.74 -3.75,-6.01 -4.09,-8.74 -0.7,-5.63 -4.4,-35.33 2.69999995,-39.04 4.23000005,-2.2 6.90000005,2.45 7.14000005,5.95 q 1.16,16.74 0.8,33.52 c -0.09,4.22 -0.99,9.57 -6.55,8.31 z" id="path206" />
   <path fill="#f67937" d="m 322.48764,320.85672 q 16.35,13.93 35.45,24 1.06,0.56 1.27,1.14 c -59.51,48.68 -103.16,117.71 -119.01,193.23 q -6.11,29.16 -5.62,60.38 -6.64,-14.41 -9.41,-29.12 l 0.84,-0.23 q 0.47,-0.13 0.56,-0.62 1.62,-8.68 1.7,-11.85 0.65,-26.96 3.31,-42.93 c 12.07,-72.48 43.34,-138.19 90.91,-194 z" id="path207" />
   <path fill="#602511" d="m 607.22764,327.19672 q 43.92,39.31 68.6,92.78 6.88,14.91 11.45,26.77 1.18,3.07 6.56,13.1 0.06,10.05 1.42,20.62 c 1.64,12.73 0.66,26.14 1.33,39.05 q 0.42,8.09 -0.04,15.03 c -3.81,57.86 -13.86,152.45 -87.84,164.49 1.52,-10.26 11.2,-19.73 18.31,-26.73 10.85,-10.71 17.72,-21.99 23.43,-36.83 12.36,-32.16 18.74,-64.74 21.35,-99.19 0.49,-6.41 0.41,-13.95 -0.36,-20.42 q -0.8,-6.64 0.48,-13.33 c 0.37,-1.94 -1.38,-6.94 -1.5,-9.7 q -1.14,-25.51 -3.04,-44.61 -4.1,-41.04 -29.85,-72.8 c -12.83,-15.82 -28.28,-20.72 -48.02,-14.31 q -31.85,10.33 -65.2,12.86 c -56.62,4.3 -110.48,-2.01 -161.99,-26.72 q -1.15,-0.55 -1.94,-2.05 l 21.97,-15.5 c 50.68,11.45 105.96,13.61 158.66,9.07 q 33.91,-2.93 66.22,-11.58 z" id="path208" />
   <path fill="#602511" d="m 144.45764,327.08672 7.77,5.79 q 1.2,13.78 2.33,28.16 c 0.59,7.44 1.85,15.2 2.75,22.87 l -10.98,-4.61 q -0.71,-0.2 -1.08,-0.66 0.67,-0.41 0.56,-1.85 -1.08,-15.05 -2.08,-46.43 -0.08,-2.24 0.73,-3.27 z" id="path209" />
   <path fill="#773a1e" d="m 360.37764,345.20672 q 0.79,1.5 1.94,2.05 c 51.51,24.71 105.37,31.02 161.99,26.72 q 33.35,-2.53 65.2,-12.86 c 19.74,-6.41 35.19,-1.51 48.02,14.31 q 25.75,31.76 29.85,72.8 1.9,19.1 3.04,44.61 c 0.12,2.76 1.87,7.76 1.5,9.7 q -1.28,6.69 -0.48,13.33 c 0.77,6.47 0.85,14.01 0.36,20.42 -2.61,34.45 -8.99,67.03 -21.35,99.19 -5.71,14.84 -12.58,26.12 -23.43,36.83 -7.11,7 -16.79,16.47 -18.31,26.73 l -12.52,1.39 a 0.62,0.62 0 0 1 -0.69,-0.65 c 0.52,-8.9 3.25,-15.42 7.08,-23.33 2.61,-5.38 -4.11,-9.42 -8.08,-4.66 q -10.03,12.03 -10.54,28.09 a 0.46,0.46 0 0 1 -0.49,0.44 q -12.98,-0.86 -25.32,-4.88 a 1.3,1.3 0 0 1 -0.9,-1.22 q -0.17,-14.61 7.71,-27.24 c 2.21,-3.54 -2.63,-8.05 -6.37,-6.05 -6.54,3.49 -11.58,20.98 -12.51,27.87 a 0.43,0.43 0 0 1 -0.67,0.3 c -17.64,-12.01 -7.69,-35.22 -2.88,-50.55 q 3.63,-11.55 5.49,-31.57 5.87,-62.86 2.37,-125.92 -0.03,-0.52 -0.4,-0.88 l -2.06,-2.01 c -6.77,-10.6 -16.49,-17.42 -29.17,-18.87 -15.28,-1.76 -27.81,4.05 -39.48,13.76 q -3.76,3.13 -6.29,8.94 -7.37,16.9 -8.73,33.28 c -4.47,53.72 -2.7,110.09 20.65,161.24 1.03,2.25 1.22,5.1 2.75,7.42 q -1.93,2.97 -5.04,4.63 -0.57,0.3 -0.67,-0.33 c -0.81,-4.8 -8.34,-33.28 -17.31,-26.78 -2.27,1.64 -2.5,3.85 -1.05,6.31 q 7.21,12.16 7.26,26.41 a 0.83,0.83 0 0 1 -0.57,0.79 q -12.38,4.27 -25.45,5.24 a 0.66,0.66 0 0 1 -0.71,-0.64 q -0.43,-14.52 -9.09,-26.01 c -2.73,-3.64 -6.2,-5.8 -9.74,-1.47 -0.96,1.18 -0.17,3.89 0.68,5.37 q 5.95,10.44 6.53,22.53 a 0.46,0.47 0.5 0 1 -0.49,0.49 c -40.38,-2.53 -65.27,-23.17 -80.19,-59.72 -18.76,-45.97 -21.6,-96.42 -21.26,-145.47 0.05,-7.42 -8.41,-6.22 -9,1.22 q -1.63,20.67 -1.33,41.19 -1.98,10.95 -2.2,21.84 c -0.82,42.45 3.59,83.52 21.28,123.23 q -30.29,2.23 -57.79,-2.22 c -15.33,-2.49 -30.8,-9.15 -28.28,-27.74 0.38,-2.81 1.49,-6.03 2.43,-9.05 1.95,-6.26 0.34,-11.66 -3.93,-16.68 q -11.01,-13 -17.16,-27.47 -0.49,-31.22 5.62,-60.38 c 15.85,-75.52 59.5,-144.55 119.01,-193.23 q 0.93,-0.22 1.17,-0.79 z m -0.38,305.35 c 1.62,3.29 17.07,32.22 22.76,22.58 1.94,-3.28 -0.14,-5 -1.88,-7.55 q -12.53,-18.31 -20.32,-43.32 c -11.79,-37.86 -13.54,-77.79 -15.12,-117.64 -0.37,-9.43 -11.3,-10 -11.54,-0.6 -0.46,18.26 -0.35,36.94 1.97,55.08 1.41,10.99 2.4,20.84 4.61,33.63 0.61,3.58 1.92,7.33 2.76,11.05 3.66,16.25 9.4,31.84 16.76,46.77 z m -98.94,16.93 c 2.75,5.33 9.41,7.23 11.99,0.37 a 1.51,1.52 47.2 0 0 0.04,-0.93 c -1.17,-4.02 -3.03,-7.8 -3.62,-11.66 q -1.1,-7.14 -0.72,-10.47 c 0.38,-3.45 -3.89,-4 -5.91,-2.59 q -1.14,0.79 -2.25,3.07 -5.34,10.97 0.47,22.21 z" id="path210" />
   <path fill="#f67937" d="m 145.24764,378.63672 q 0.37,0.46 1.08,0.66 1.02,23.47 7.35,46.04 c -58.469997,-2.28 -98.879988,44.3 -105.329988,98.75 q -0.07,0.55 -0.61,0.47 -16.01,-25.63 -28.03,-53.47 -0.8,-1.85 -1.4,-3.74 c 12.72,-55.75 66.249991,-104.67 126.939988,-88.71 z" id="path211" />
   <path fill="#c64d22" d="m 146.32764,379.29672 10.98,4.61 q 3.51,21.7 10.52,43.55 l -14.06,-2.01 q -0.72,0 -0.09,-0.11 -6.33,-22.57 -7.35,-46.04 z" id="path212" />
   <path fill="#924b2e" d="m 22.107652,434.41672 c -0.26,4.7 -6.93,5.94 -9.11,1.51 -5.2300001,-10.66 -9.6000001,-25.35 -9.0600001,-37.99 0.3,-7.01 8.3400001,-8.11 10.0300001,-1.62 q 4.24,16.3 7.32,32.85 0.85,4.57 0.82,5.25 z" id="path213" />
   <path fill="#773a1e" d="m 153.67764,425.33672 q -0.63,0.11 0.09,0.11 5.71,19.14 14.52,36.6 c 0.55,1.1 0.42,2.36 1.15,3.38 -44.77,9.5 -68.15,57.97 -70.659997,99.61 q -0.65,10.65 1.359997,26 -30.039988,-30.54 -52.399988,-66.48 0.54,0.08 0.61,-0.47 c 6.45,-54.45 46.859991,-101.03 105.329988,-98.75 z" id="path214" />
   <path fill="#602511" d="m 153.76764,425.44672 14.06,2.01 q 6.43,18.68 17.17,36.34 l -14.72,1.47 q -0.21,-0.09 -0.84,0.16 c -0.73,-1.02 -0.6,-2.28 -1.15,-3.38 q -8.81,-17.46 -14.52,-36.6 z" id="path215" />
   <path fill="#602511" d="m 547.92764,478.16672 q -3.72,-0.15 -4.35,2.89 c -1.64,8 -1.14,17.01 -1.25,25.17 q -0.11,8.53 -0.62,16.61 c -2.06,32.15 -2.6,65.32 -6.97,96.45 -2.27,16.23 -9.73,32.54 -11.41,47.09 q -0.05,0.42 -0.47,0.41 l -17.24,-0.35 a 0.97,0.97 0 0 1 -0.94,-0.88 c -0.88,-9.5 -4.31,-18.8 -7.11,-27.97 -5.16,-16.85 -6.3,-33.62 -7.66,-52.49 q -3.37,-46.87 -3.12,-101.81 c 0.02,-4.25 -8.46,-7.78 -9.27,-0.28 q -1.13,10.48 -1.34,20.96 -1.06,54.04 4.43,107.78 c 1.7,16.57 6.37,31.63 11.23,47.44 q 4.11,13.34 -4.18,24.75 c -1.53,-2.32 -1.72,-5.17 -2.75,-7.42 -23.35,-51.15 -25.12,-107.52 -20.65,-161.24 q 1.36,-16.38 8.73,-33.28 2.53,-5.81 6.29,-8.94 c 11.67,-9.71 24.2,-15.52 39.48,-13.76 12.68,1.45 22.4,8.27 29.17,18.87 z" id="path216" />
   <path fill="#c64d22" d="m 184.99764,463.79672 c 7.45,10.2 13.03,17.04 22.26,25.01 l -15.12,7.85 q -0.02,-0.01 -0.05,-0.02 -12.54,-14.48 -21.81,-31.37 z" id="path217" />
   <path fill="#f67937" d="m 169.43764,465.42672 q 0.63,-0.25 0.84,-0.16 9.27,16.89 21.81,31.37 c -35.93,23.98 -51.2,63.25 -48.92,105.59 q 0.47,8.68 0.94,13.68 -17.57,-7.39 -35.08,-18.65 -3.66,-2.35 -5.86,-4.57 -0.28,-0.28 -0.66,-0.22 l -0.79,0.12 -1.58,-1.55 q -2.009997,-15.35 -1.359997,-26 c 2.509997,-41.64 25.889997,-90.11 70.659997,-99.61 z" id="path218" />
   <path fill="#602511" d="m 207.25764,488.80672 6.38,4.77 q 0.44,0.33 0.37,0.88 l -2.73,20.12 q -10.7,-8.09 -19.14,-17.92 z" id="path219" />
   <path fill="#773a1e" d="m 192.08764,496.63672 q 0.03,0.01 0.05,0.02 8.44,9.83 19.14,17.92 -1.31,19.86 -0.35,39.25 -13.91,26.37 -11.46,56.78 1.24,15.41 4.56,27.18 -0.13,0.6 0.09,0.67 c -5.22,-1.67 -10.9,-2.84 -15.67,-4.51 q -22.1,-7.74 -43.47,-17.36 -0.5,-0.23 -0.61,1 l -0.26,-1.68 q -0.47,-5 -0.94,-13.68 c -2.28,-42.34 12.99,-81.61 48.92,-105.59 z" id="path220" />
   <path fill="#924b2e" d="m 382.75764,673.13672 c -5.69,9.64 -21.14,-19.29 -22.76,-22.58 -7.36,-14.93 -13.1,-30.52 -16.76,-46.77 -0.84,-3.72 -2.15,-7.47 -2.76,-11.05 -2.21,-12.79 -3.2,-22.64 -4.61,-33.63 -2.32,-18.14 -2.43,-36.82 -1.97,-55.08 0.24,-9.4 11.17,-8.83 11.54,0.6 1.58,39.85 3.33,79.78 15.12,117.64 q 7.79,25.01 20.32,43.32 c 1.74,2.55 3.82,4.27 1.88,7.55 z" id="path221" />
   <path fill="#602511" d="m 320.22764,537.69672 c 1.97,47.82 10.68,103.5 40.6,141.16 q 0.7,0.88 -0.4,1.09 -11.19,2.2 -21.12,2.82 c -17.69,-39.71 -22.1,-80.78 -21.28,-123.23 q 0.22,-10.89 2.2,-21.84 z" id="path222" />
   <path fill="#f67937" d="m 210.92764,553.82672 c 4.04,30.75 12.46,57.72 32.76,81.5 2.29,2.69 1.08,5.66 -0.22,8.6 q -19.77,-0.7 -38.86,-5.63 -0.25,-0.06 -0.35,-0.3 -0.08,-0.21 -0.23,-0.21 -3.32,-11.77 -4.56,-27.18 -2.45,-30.41 11.46,-56.78 z" id="path223" />
   <path fill="#c64d22" d="m 144.10764,615.90672 0.26,1.68 1.27,9.15 q -24.21,-14.47 -43.92,-34.15 l 0.79,-0.12 q 0.38,-0.06 0.66,0.22 2.2,2.22 5.86,4.57 17.51,11.26 35.08,18.65 z" id="path224" />
   <path fill="#602511" d="m 204.11764,638.45672 4.73,14.08 q -0.69,0.34 -1.28,0.19 -33.32,-8.66 -61.93,-25.99 l -1.27,-9.15 q 0.11,-1.23 0.61,-1 21.37,9.62 43.47,17.36 c 4.77,1.67 10.45,2.84 15.67,4.51 z" id="path225" />
   <path fill="#602511" d="m 696.25764,618.85672 a 0.32,0.32 0 0 1 0.54,-0.13 c 6.83,7.22 14.58,13.97 16.81,24.26 4.79,22.18 -22.79,26.09 -37.7,25.45 q -0.67,-0.03 -0.33,-0.6 13.67,-23.07 20.68,-48.98 z" id="path226" />
   <path fill="#c64d22" d="m 204.02764,637.78672 q 0.15,0 0.23,0.21 0.1,0.24 0.35,0.3 19.09,4.93 38.86,5.63 -1.92,6.3 -2.01,13.4 -0.01,0.52 -0.53,0.51 -15.32,-0.55 -30.18,-4.24 -1.42,-0.35 -1.9,-1.06 l -4.73,-14.08 q -0.22,-0.07 -0.09,-0.67 z" id="path227" />
   <path fill="#924b2e" d="m 273.04764,667.85672 c -2.58,6.86 -9.24,4.96 -11.99,-0.37 q -5.81,-11.24 -0.47,-22.21 1.11,-2.28 2.25,-3.07 c 2.02,-1.41 6.29,-0.86 5.91,2.59 q -0.38,3.33 0.72,10.47 c 0.59,3.86 2.45,7.64 3.62,11.66 a 1.51,1.52 47.2 0 1 -0.04,0.93 z" id="path228" />
</svg>
